<svg xmlns="http://www.w3.org/2000/svg" width="67.5" height="60" viewBox="0 0 67.5 60">
  <path id="Icon_awesome-shopping-cart" data-name="Icon awesome-shopping-cart" d="M61.889,35.311l5.54-24.375A2.813,2.813,0,0,0,64.686,7.5H18.657L17.583,2.249A2.812,2.812,0,0,0,14.828,0H2.812A2.812,2.812,0,0,0,0,2.813V4.688A2.812,2.812,0,0,0,2.812,7.5H11l8.232,40.246a6.563,6.563,0,1,0,7.857,1H51.659a6.561,6.561,0,1,0,7.453-1.219l.647-2.845a2.813,2.813,0,0,0-2.743-3.436H25.561l-.767-3.75H59.147A2.812,2.812,0,0,0,61.889,35.311Z" fill="#049dbf"/>
</svg>
